<?xml version="1.0" standalone="no"?>
<!DOCTYPE svg PUBLIC "-//W3C//DTD SVG 20010904//EN"
 "http://www.w3.org/TR/2001/REC-SVG-20010904/DTD/svg10.dtd">
<svg version="1.0" xmlns="http://www.w3.org/2000/svg"
 width="512.000000pt" height="512.000000pt" viewBox="0 0 512.000000 512.000000"
 preserveAspectRatio="xMidYMid meet">
<metadata>
Created by potrace 1.14, written by Peter Selinger 2001-2017
</metadata>
<g transform="translate(0.000000,512.000000) scale(0.100000,-0.100000)"
fill="#000000" stroke="none">
<path d="M905 4340 l780 -780 3 250 2 250 870 0 870 0 2 -250 3 -250 780 780
780 780 -2435 0 -2435 0 780 -780z"/>
<path d="M0 2565 l0 -2430 845 845 845 845 0 740 0 740 -845 845 -845 845 0
-2430z"/>
<path d="M4055 3930 l-1050 -1050 173 0 172 0 0 -260 0 -260 -230 -2 -230 -3
1115 -1115 1115 -1115 0 2428 c0 1335 -3 2427 -8 2427 -4 0 -480 -472 -1057
-1050z"/>
<path d="M2330 3227 c0 -291 1 -315 18 -330 16 -15 46 -17 208 -17 l189 0 325
323 c178 177 326 325 328 330 2 4 -237 7 -532 7 l-536 0 0 -313z"/>
<path d="M2407 2282 l-77 -77 0 -308 0 -307 531 0 531 0 -50 58 c-28 31 -198
204 -379 385 l-329 327 -75 0 -74 0 -78 -78z"/>
<path d="M905 780 l-780 -780 2430 0 2430 0 -775 775 -775 775 -3 -245 -2
-245 -870 0 -870 0 -2 250 -3 250 -780 -780z"/>
</g>
</svg>
