<svg id="layer" xmlns="http://www.w3.org/2000/svg" viewBox="0 0 652 652"><defs><style>.cls-1{fill:#fff;}</style></defs><g id="Layer_2" data-name="Layer 2"><g id="art"><path class="cls-1" d="M94.6,325.28a94.08,94.08,0,0,0-82.77-93.42,374.85,374.85,0,0,0,0,186.84A93.92,93.92,0,0,0,94.6,325.28Z"/><path class="cls-1" d="M149.3,295.78a29.61,29.61,0,1,0,29.5,29.71v-.21A29.38,29.38,0,0,0,149.3,295.78Z"/><path class="cls-1" d="M557.4,325.28a94.07,94.07,0,0,0,82.77,93.42,374.85,374.85,0,0,0,0-186.84A94.23,94.23,0,0,0,557.4,325.28Z"/><path class="cls-1" d="M502.5,295.78a29.61,29.61,0,1,0,29.29,29.91v-.41A29.6,29.6,0,0,0,502.5,295.78Z"/><path class="cls-1" d="M325.28,557.4a94.08,94.08,0,0,0-93.42,82.77,374.85,374.85,0,0,0,186.84,0A94.07,94.07,0,0,0,325.28,557.4Z"/><path class="cls-1" d="M325.28,473.2a29.61,29.61,0,1,0,29.5,29.71v-.21A29.51,29.51,0,0,0,325.28,473.2Z"/><path class="cls-1" d="M325.28,94.6A94.07,94.07,0,0,0,418.7,11.83a374.85,374.85,0,0,0-186.84,0A94.08,94.08,0,0,0,325.28,94.6Z"/><path class="cls-1" d="M325.28,119.8a29.5,29.5,0,1,0,29.5,29.5h0A29.5,29.5,0,0,0,325.28,119.8Z"/><path class="cls-1" d="M489.18,489.18a93.92,93.92,0,0,0-7.58,124.36A374.56,374.56,0,0,0,613.74,481.39,94.91,94.91,0,0,0,489.18,489.18Z"/><path class="cls-1" d="M429.56,429.56a29.56,29.56,0,1,0,41.8,0h0A29.69,29.69,0,0,0,429.56,429.56Z"/><path class="cls-1" d="M162,162a94.17,94.17,0,0,0,7.79-124.36A374.59,374.59,0,0,0,37.64,169.79,94.19,94.19,0,0,0,162,162Z"/><path class="cls-1" d="M179.82,179.82a29.56,29.56,0,1,0,41.8,0h0A29.69,29.69,0,0,0,179.82,179.82Z"/><path class="cls-1" d="M489,161.59a94.19,94.19,0,0,0,124.36,7.79A374.46,374.46,0,0,0,481.19,37.24,94.17,94.17,0,0,0,489,161.59Z"/><path class="cls-1" d="M471.15,221.41a29.55,29.55,0,1,0-41.79,0h0A29.66,29.66,0,0,0,471.15,221.41Z"/><path class="cls-1" d="M161.8,489a94.18,94.18,0,0,0-124.36-7.78A373.9,373.9,0,0,0,169.38,613.33,94.16,94.16,0,0,0,161.8,489Z"/><path class="cls-1" d="M179.62,429.15a29.55,29.55,0,1,0,41.79,0h0A29.68,29.68,0,0,0,179.62,429.15Z"/></g></g></svg>