<svg xmlns="http://www.w3.org/2000/svg" viewBox="0 0 16.4 26.06"><defs><style>.a{fill:#fefdfc;}</style></defs><path class="a" d="M15.64,29a13.48,13.48,0,0,1-6.4-1.39c-1.67-.86-1.83-1.5-.78-3.07.63-.93.81-1,1.78-.4a9.47,9.47,0,0,0,6.69,1.24A3.74,3.74,0,0,0,20,22,3.88,3.88,0,0,0,18,17.89a15.28,15.28,0,0,0-3.33-1.28,14.14,14.14,0,0,1-3.95-1.7,4.88,4.88,0,0,1-2.13-3.24c-1-5.26,2.7-8.11,6.31-8.58a13.6,13.6,0,0,1,6.45.67c1.7.61,1.9,1.2,1.05,2.78-.09.18-.2.35-.31.53a.87.87,0,0,1-1.34.34A7.66,7.66,0,0,0,15,6.76a2.92,2.92,0,0,0-2.21,3.89A2.82,2.82,0,0,0,14,12.12a11.26,11.26,0,0,0,2.61,1.09,32.13,32.13,0,0,1,3.53,1.36,6.41,6.41,0,0,1,4.05,6.07,7.71,7.71,0,0,1-6.07,8.2,5.84,5.84,0,0,1-1,.18C16.63,29.05,16.13,29,15.64,29Z" transform="translate(-7.8 -2.97)"/></svg>